<svg xmlns="http://www.w3.org/2000/svg" width="96" height="96" viewBox="0 0 96 96"><rect width="96" height="96" fill="none"/><rect x="28" y="10" width="40" height="16" rx="4" fill="#8070a8"/><rect x="22" y="24" width="52" height="36" rx="6" fill="#54407c"/><rect x="28" y="30" width="40" height="24" rx="4" fill="#6e5a96"/><rect x="18" y="30" width="8" height="28" rx="3" fill="#8070a8"/><rect x="70" y="30" width="8" height="28" rx="3" fill="#8070a8"/><rect x="34" y="60" width="10" height="20" rx="3" fill="#3f314f"/><rect x="52" y="60" width="10" height="20" rx="3" fill="#3f314f"/><rect x="36" y="36" width="6" height="6" fill="#e5e9f0"/><rect x="54" y="36" width="6" height="6" fill="#e5e9f0"/><rect x="40" y="46" width="16" height="4" rx="2" fill="#2b2037"/><rect x="10" y="54" width="12" height="6" fill="#c7ccd4"/><rect x="74" y="54" width="12" height="6" fill="#c7ccd4"/></svg>