<svg xmlns="http://www.w3.org/2000/svg" width="64" height="64" viewBox="0 0 64 64"><rect width="64" height="64" fill="none"/><rect x="24" y="6" width="16" height="10" rx="2" fill="#9aa7b8"/><rect x="20" y="16" width="24" height="16" rx="3" fill="#d6b35c"/><rect x="22" y="18" width="20" height="12" rx="2" fill="#f2d39c"/><rect x="16" y="20" width="6" height="22" rx="2" fill="#9aa7b8"/><rect x="42" y="20" width="6" height="22" rx="2" fill="#9aa7b8"/><rect x="24" y="30" width="16" height="18" rx="2" fill="#3f7fb6"/><rect x="22" y="48" width="8" height="12" rx="2" fill="#5f4631"/><rect x="34" y="48" width="8" height="12" rx="2" fill="#5f4631"/><rect x="18" y="30" width="4" height="16" fill="#f2d39c"/><rect x="42" y="30" width="4" height="16" fill="#f2d39c"/><rect x="44" y="34" width="10" height="4" fill="#cfd7e3"/><rect x="54" y="33" width="4" height="6" fill="#8ea0b6"/><rect x="10" y="28" width="10" height="12" rx="2" fill="#b44747"/><rect x="12" y="30" width="6" height="8" fill="#d86a6a"/><rect x="27" y="22" width="3" height="3" fill="#2b2b2b"/><rect x="34" y="22" width="3" height="3" fill="#2b2b2b"/></svg>